<mxfile host="app.diagrams.net" modified="2021-06-25T03:16:55.025Z" agent="5.0 (Windows NT 10.0; Win64; x64) AppleWebKit/537.36 (KHTML, like Gecko) Chrome/91.0.4472.114 Safari/537.36 Edg/91.0.864.54" etag="bMDKL1LCaDLgHFzNiDEC" version="14.8.1" type="github">
  <diagram id="C5RBs43oDa-KdzZeNtuy" name="Page-1">
    <mxGraphModel dx="1185" dy="635" grid="1" gridSize="10" guides="1" tooltips="1" connect="1" arrows="1" fold="1" page="1" pageScale="1" pageWidth="827" pageHeight="1169" math="0" shadow="0">
      <root>
        <mxCell id="WIyWlLk6GJQsqaUBKTNV-0" />
        <mxCell id="WIyWlLk6GJQsqaUBKTNV-1" parent="WIyWlLk6GJQsqaUBKTNV-0" />
        <mxCell id="Qo23SKRH1Hzx0aLMsCAz-0" value="开始" style="ellipse;whiteSpace=wrap;html=1;" vertex="1" parent="WIyWlLk6GJQsqaUBKTNV-1">
          <mxGeometry x="110" y="10" width="95.29411764705883" height="54" as="geometry" />
        </mxCell>
        <mxCell id="Qo23SKRH1Hzx0aLMsCAz-1" value="抛出错误&lt;br&gt;退出脚本" style="rounded=1;whiteSpace=wrap;html=1;" vertex="1" parent="WIyWlLk6GJQsqaUBKTNV-1">
          <mxGeometry x="538.8235294117646" y="217.5" width="95.29411764705883" height="40.5" as="geometry" />
        </mxCell>
        <mxCell id="Qo23SKRH1Hzx0aLMsCAz-2" value="连接正常？" style="rhombus;whiteSpace=wrap;html=1;" vertex="1" parent="WIyWlLk6GJQsqaUBKTNV-1">
          <mxGeometry x="125.88235294117646" y="210.75" width="63.529411764705884" height="54" as="geometry" />
        </mxCell>
        <mxCell id="Qo23SKRH1Hzx0aLMsCAz-8" style="edgeStyle=orthogonalEdgeStyle;rounded=0;orthogonalLoop=1;jettySize=auto;html=1;exitX=0.5;exitY=1;exitDx=0;exitDy=0;entryX=0.5;entryY=0;entryDx=0;entryDy=0;" edge="1" parent="WIyWlLk6GJQsqaUBKTNV-1" source="Qo23SKRH1Hzx0aLMsCAz-3" target="Qo23SKRH1Hzx0aLMsCAz-2">
          <mxGeometry x="110" y="75.75" as="geometry" />
        </mxCell>
        <mxCell id="Qo23SKRH1Hzx0aLMsCAz-3" value="检测hdfs连接" style="rounded=1;whiteSpace=wrap;html=1;" vertex="1" parent="WIyWlLk6GJQsqaUBKTNV-1">
          <mxGeometry x="110" y="150" width="95.29411764705883" height="40.5" as="geometry" />
        </mxCell>
        <mxCell id="Qo23SKRH1Hzx0aLMsCAz-7" style="edgeStyle=orthogonalEdgeStyle;rounded=0;orthogonalLoop=1;jettySize=auto;html=1;exitX=0.5;exitY=1;exitDx=0;exitDy=0;entryX=0.5;entryY=0;entryDx=0;entryDy=0;" edge="1" parent="WIyWlLk6GJQsqaUBKTNV-1" source="Qo23SKRH1Hzx0aLMsCAz-0" target="Qo23SKRH1Hzx0aLMsCAz-21">
          <mxGeometry x="110" y="40" as="geometry">
            <mxPoint x="158" y="140" as="targetPoint" />
          </mxGeometry>
        </mxCell>
        <mxCell id="Qo23SKRH1Hzx0aLMsCAz-4" value="结束" style="ellipse;whiteSpace=wrap;html=1;" vertex="1" parent="WIyWlLk6GJQsqaUBKTNV-1">
          <mxGeometry x="110" y="561.75" width="95.29411764705883" height="54" as="geometry" />
        </mxCell>
        <mxCell id="Qo23SKRH1Hzx0aLMsCAz-11" value="" style="edgeStyle=elbowEdgeStyle;elbow=horizontal;endArrow=classic;html=1;exitX=1;exitY=0.5;exitDx=0;exitDy=0;entryX=1;entryY=0.5;entryDx=0;entryDy=0;" edge="1" parent="WIyWlLk6GJQsqaUBKTNV-1" source="Qo23SKRH1Hzx0aLMsCAz-1" target="Qo23SKRH1Hzx0aLMsCAz-4">
          <mxGeometry x="110" y="75.75" width="50" height="50" as="geometry">
            <mxPoint x="324.4117647058823" y="568.5" as="sourcePoint" />
            <mxPoint x="364.11764705882354" y="534.75" as="targetPoint" />
            <Array as="points">
              <mxPoint x="650" y="426.75" />
            </Array>
          </mxGeometry>
        </mxCell>
        <mxCell id="Qo23SKRH1Hzx0aLMsCAz-19" value="" style="endArrow=classic;html=1;exitX=1;exitY=0.5;exitDx=0;exitDy=0;entryX=0;entryY=0.5;entryDx=0;entryDy=0;" edge="1" parent="WIyWlLk6GJQsqaUBKTNV-1" source="Qo23SKRH1Hzx0aLMsCAz-2" target="Qo23SKRH1Hzx0aLMsCAz-1">
          <mxGeometry width="50" height="50" relative="1" as="geometry">
            <mxPoint x="360" y="405.75" as="sourcePoint" />
            <mxPoint x="410" y="355.75" as="targetPoint" />
          </mxGeometry>
        </mxCell>
        <mxCell id="Qo23SKRH1Hzx0aLMsCAz-20" value="No" style="edgeLabel;html=1;align=center;verticalAlign=middle;resizable=0;points=[];" vertex="1" connectable="0" parent="Qo23SKRH1Hzx0aLMsCAz-19">
          <mxGeometry x="-0.8917" relative="1" as="geometry">
            <mxPoint as="offset" />
          </mxGeometry>
        </mxCell>
        <mxCell id="Qo23SKRH1Hzx0aLMsCAz-21" value="加载配置文件" style="rounded=1;whiteSpace=wrap;html=1;" vertex="1" parent="WIyWlLk6GJQsqaUBKTNV-1">
          <mxGeometry x="110" y="90" width="95.29411764705883" height="40.5" as="geometry" />
        </mxCell>
        <mxCell id="Qo23SKRH1Hzx0aLMsCAz-23" value="" style="endArrow=classic;html=1;exitX=0.5;exitY=1;exitDx=0;exitDy=0;entryX=0.5;entryY=0;entryDx=0;entryDy=0;" edge="1" parent="WIyWlLk6GJQsqaUBKTNV-1" source="Qo23SKRH1Hzx0aLMsCAz-21" target="Qo23SKRH1Hzx0aLMsCAz-3">
          <mxGeometry width="50" height="50" relative="1" as="geometry">
            <mxPoint x="360" y="260" as="sourcePoint" />
            <mxPoint x="410" y="210" as="targetPoint" />
          </mxGeometry>
        </mxCell>
        <mxCell id="Qo23SKRH1Hzx0aLMsCAz-24" value="读取.zip文件列表" style="rounded=1;whiteSpace=wrap;html=1;" vertex="1" parent="WIyWlLk6GJQsqaUBKTNV-1">
          <mxGeometry x="110" y="280" width="95.29411764705883" height="40.5" as="geometry" />
        </mxCell>
        <mxCell id="Qo23SKRH1Hzx0aLMsCAz-26" value="任务正常结束&lt;br&gt;等待调用" style="ellipse;whiteSpace=wrap;html=1;" vertex="1" parent="WIyWlLk6GJQsqaUBKTNV-1">
          <mxGeometry x="110" y="490" width="95.29411764705883" height="54" as="geometry" />
        </mxCell>
        <mxCell id="Qo23SKRH1Hzx0aLMsCAz-27" value="列表长度&lt;br&gt;大于0？" style="rhombus;whiteSpace=wrap;html=1;" vertex="1" parent="WIyWlLk6GJQsqaUBKTNV-1">
          <mxGeometry x="125.88235294117646" y="340" width="63.529411764705884" height="54" as="geometry" />
        </mxCell>
        <mxCell id="Qo23SKRH1Hzx0aLMsCAz-28" value="抛出错误&lt;br&gt;退出脚本" style="rounded=1;whiteSpace=wrap;html=1;" vertex="1" parent="WIyWlLk6GJQsqaUBKTNV-1">
          <mxGeometry x="538.8235294117646" y="346.75" width="95.29411764705883" height="40.5" as="geometry" />
        </mxCell>
      </root>
    </mxGraphModel>
  </diagram>
</mxfile>
